#Comment line ignore any data following # character 
#Hierarchical Translation and Rotation (.htr) file 
[Header]	
#Header keywords are followed by a single value 
FileType HTR		#Single word string
DataType HTRS		#Translation followed by rotation and scale data
FileVersion 1		#integer
NumSegments 84		#integer
NumFrames 2		#integer
DataFrameRate 30		#integer, data frame rate in this file
EulerRotationOrder ZYX
CalibrationUnits mm
RotationUnits Degrees
GlobalAxisofGravity Y
BoneLengthAxis Y
ScaleFactor 1.00
[SegmentNames&Hierarchy]
#CHILD	PARENT
MASTER GLOBAL
root MASTER
chest root
L_mid_tent01 root
R_mid_tent01 root
spine01 root
Bip01_Neck chest
L_humerus chest
R_humerus chest
weapon_bone chest
Bip01_Head Bip01_Neck
eye_left_bone Bip01_Head
eye_right_bone Bip01_Head
L_forearm L_humerus
L_front_hand L_forearm
L_weapon_bone L_forearm
L_front_hand01_01 L_front_hand
L_front_hand02_01 L_front_hand
L_front_hand03_01 L_front_hand
L_front_hand01_02 L_front_hand01_01
L_front_hand02_02 L_front_hand02_01
L_front_hand03_02 L_front_hand03_01
R_forearm R_humerus
R_front_hand R_forearm
R_weapon_bone R_forearm
R_front_hand01_01 R_front_hand
R_front_hand02_01 R_front_hand
R_front_hand03_01 R_front_hand
R_front_hand01_02 R_front_hand01_01
R_front_hand02_02 R_front_hand02_01
R_front_hand03_02 R_front_hand03_01
null_rope01_connect L_mid_tent01
Rope1_Seg01 null_rope01_connect
Rope1_Seg02 Rope1_Seg01
Rope1_Seg03 Rope1_Seg02
Rope1_Seg04 Rope1_Seg03
Rope1_Seg05 Rope1_Seg04
Rope1_Seg06 Rope1_Seg05
Rope1_Seg07 Rope1_Seg06
Rope1_Seg09 Rope1_Seg07
L_mid_hand01 Rope1_Seg09
L_mid_hand02 Rope1_Seg09
L_mid_hand03 Rope1_Seg09
null_rope02_connect R_mid_tent01
Rope2_Seg01 null_rope02_connect
Rope2_Seg02 Rope2_Seg01
Rope2_Seg03 Rope2_Seg02
Rope2_Seg04 Rope2_Seg03
Rope2_Seg05 Rope2_Seg04
Rope2_Seg06 Rope2_Seg05
Rope2_Seg07 Rope2_Seg06
Rope2_Seg09 Rope2_Seg07
R_mid_hand01 Rope2_Seg09
R_mid_hand02 Rope2_Seg09
R_mid_hand03 Rope2_Seg09
spine02 spine01
spine03 spine02
pelvis spine03
null_rope03_connect pelvis
null_rope04_connect pelvis
Rope3_Seg01 null_rope03_connect
Rope3_Seg02 Rope3_Seg01
Rope3_Seg03 Rope3_Seg02
Rope3_Seg04 Rope3_Seg03
Rope3_Seg05 Rope3_Seg04
Rope3_Seg06 Rope3_Seg05
Rope3_Seg07 Rope3_Seg06
Rope3_Seg08 Rope3_Seg07
Rope3_Seg09 Rope3_Seg08
R_rear_hand01 Rope3_Seg09
R_rear_hand02 Rope3_Seg09
R_rear_hand03 Rope3_Seg09
Rope4_Seg01 null_rope04_connect
Rope4_Seg02 Rope4_Seg01
Rope4_Seg03 Rope4_Seg02
Rope4_Seg04 Rope4_Seg03
Rope4_Seg05 Rope4_Seg04
Rope4_Seg06 Rope4_Seg05
Rope4_Seg07 Rope4_Seg06
Rope4_Seg08 Rope4_Seg07
Rope4_Seg09 Rope4_Seg08
L_rear_hand01 Rope4_Seg09
L_rear_hand02 Rope4_Seg09
L_rear_hand03 Rope4_Seg09
[BasePosition]
#SegmentName Tx, Ty, Tz, Rx, Ry, Rz, BoneLength
MASTER 0.000000 0.000000 0.000000 -90.000000 0.000000 0.000000 10.000000 
root 0.000000 0.000000 0.000000 0.000000 0.000000 0.000000 10.000000 
chest 0.000000 0.000000 0.000000 0.000000 0.000000 0.000000 10.000000 
L_mid_tent01 0.000000 0.000000 0.000000 0.000000 0.000000 0.000000 10.000000 
R_mid_tent01 0.000000 0.000000 0.000000 0.000000 0.000000 0.000000 10.000000 
spine01 0.000000 0.000000 0.000000 0.000000 0.000000 0.000000 10.000000 
Bip01_Neck 0.000000 0.000000 0.000000 0.000000 0.000000 0.000000 10.000000 
L_humerus 0.000000 0.000000 0.000000 0.000000 0.000000 0.000000 10.000000 
R_humerus 0.000000 0.000000 0.000000 0.000000 0.000000 0.000000 10.000000 
weapon_bone 0.000000 0.000000 0.000000 0.000000 0.000000 0.000000 10.000000 
Bip01_Head 0.000000 0.000000 0.000000 0.000000 0.000000 0.000000 10.000000 
eye_left_bone 0.000000 0.000000 0.000000 0.000000 0.000000 0.000000 10.000000 
eye_right_bone 0.000000 0.000000 0.000000 0.000000 0.000000 0.000000 10.000000 
L_forearm 0.000000 0.000000 0.000000 0.000000 0.000000 0.000000 10.000000 
L_front_hand 0.000000 0.000000 0.000000 0.000000 0.000000 0.000000 10.000000 
L_weapon_bone 0.000000 0.000000 0.000000 0.000000 0.000000 0.000000 10.000000 
L_front_hand01_01 0.000000 0.000000 0.000000 0.000000 0.000000 0.000000 10.000000 
L_front_hand02_01 0.000000 0.000000 0.000000 0.000000 0.000000 0.000000 10.000000 
L_front_hand03_01 0.000000 0.000000 0.000000 0.000000 0.000000 0.000000 10.000000 
L_front_hand01_02 0.000000 0.000000 0.000000 0.000000 0.000000 0.000000 10.000000 
L_front_hand02_02 0.000000 0.000000 0.000000 0.000000 0.000000 0.000000 10.000000 
L_front_hand03_02 0.000000 0.000000 0.000000 0.000000 0.000000 0.000000 10.000000 
R_forearm 0.000000 0.000000 0.000000 0.000000 0.000000 0.000000 10.000000 
R_front_hand 0.000000 0.000000 0.000000 0.000000 0.000000 0.000000 10.000000 
R_weapon_bone 0.000000 0.000000 0.000000 0.000000 0.000000 0.000000 10.000000 
R_front_hand01_01 0.000000 0.000000 0.000000 0.000000 0.000000 0.000000 10.000000 
R_front_hand02_01 0.000000 0.000000 0.000000 0.000000 0.000000 0.000000 10.000000 
R_front_hand03_01 0.000000 0.000000 0.000000 0.000000 0.000000 0.000000 10.000000 
R_front_hand01_02 0.000000 0.000000 0.000000 0.000000 0.000000 0.000000 10.000000 
R_front_hand02_02 0.000000 0.000000 0.000000 0.000000 0.000000 0.000000 10.000000 
R_front_hand03_02 0.000000 0.000000 0.000000 0.000000 0.000000 0.000000 10.000000 
null_rope01_connect 0.000000 0.000000 0.000000 0.000000 0.000000 0.000000 10.000000 
Rope1_Seg01 0.000000 0.000000 0.000000 0.000000 0.000000 0.000000 10.000000 
Rope1_Seg02 0.000000 0.000000 0.000000 0.000000 0.000000 0.000000 10.000000 
Rope1_Seg03 0.000000 0.000000 0.000000 0.000000 0.000000 0.000000 10.000000 
Rope1_Seg04 0.000000 0.000000 0.000000 0.000000 0.000000 0.000000 10.000000 
Rope1_Seg05 0.000000 0.000000 0.000000 0.000000 0.000000 0.000000 10.000000 
Rope1_Seg06 0.000000 0.000000 0.000000 0.000000 0.000000 0.000000 10.000000 
Rope1_Seg07 0.000000 0.000000 0.000000 0.000000 0.000000 0.000000 10.000000 
Rope1_Seg09 0.000000 0.000000 0.000000 0.000000 0.000000 0.000000 10.000000 
L_mid_hand01 0.000000 0.000000 0.000000 0.000000 0.000000 0.000000 10.000000 
L_mid_hand02 0.000000 0.000000 0.000000 0.000000 0.000000 0.000000 10.000000 
L_mid_hand03 0.000000 0.000000 0.000000 0.000000 0.000000 0.000000 10.000000 
null_rope02_connect 0.000000 0.000000 0.000000 0.000000 0.000000 0.000000 10.000000 
Rope2_Seg01 0.000000 0.000000 0.000000 0.000000 0.000000 0.000000 10.000000 
Rope2_Seg02 0.000000 0.000000 0.000000 0.000000 0.000000 0.000000 10.000000 
Rope2_Seg03 0.000000 0.000000 0.000000 0.000000 0.000000 0.000000 10.000000 
Rope2_Seg04 0.000000 0.000000 0.000000 0.000000 0.000000 0.000000 10.000000 
Rope2_Seg05 0.000000 0.000000 0.000000 0.000000 0.000000 0.000000 10.000000 
Rope2_Seg06 0.000000 0.000000 0.000000 0.000000 0.000000 0.000000 10.000000 
Rope2_Seg07 0.000000 0.000000 0.000000 0.000000 0.000000 0.000000 10.000000 
Rope2_Seg09 0.000000 0.000000 0.000000 0.000000 0.000000 0.000000 10.000000 
R_mid_hand01 0.000000 0.000000 0.000000 0.000000 0.000000 0.000000 10.000000 
R_mid_hand02 0.000000 0.000000 0.000000 0.000000 0.000000 0.000000 10.000000 
R_mid_hand03 0.000000 0.000000 0.000000 0.000000 0.000000 0.000000 10.000000 
spine02 0.000000 0.000000 0.000000 0.000000 0.000000 0.000000 10.000000 
spine03 0.000000 0.000000 0.000000 0.000000 0.000000 0.000000 10.000000 
pelvis 0.000000 0.000000 0.000000 0.000000 0.000000 0.000000 10.000000 
null_rope03_connect 0.000000 0.000000 0.000000 0.000000 0.000000 0.000000 10.000000 
null_rope04_connect 0.000000 0.000000 0.000000 0.000000 0.000000 0.000000 10.000000 
Rope3_Seg01 0.000000 0.000000 0.000000 0.000000 0.000000 0.000000 10.000000 
Rope3_Seg02 0.000000 0.000000 0.000000 0.000000 0.000000 0.000000 10.000000 
Rope3_Seg03 0.000000 0.000000 0.000000 0.000000 0.000000 0.000000 10.000000 
Rope3_Seg04 0.000000 0.000000 0.000000 0.000000 0.000000 0.000000 10.000000 
Rope3_Seg05 0.000000 0.000000 0.000000 0.000000 0.000000 0.000000 10.000000 
Rope3_Seg06 0.000000 0.000000 0.000000 0.000000 0.000000 0.000000 10.000000 
Rope3_Seg07 0.000000 0.000000 0.000000 0.000000 0.000000 0.000000 10.000000 
Rope3_Seg08 0.000000 0.000000 0.000000 0.000000 0.000000 0.000000 10.000000 
Rope3_Seg09 0.000000 0.000000 0.000000 0.000000 0.000000 0.000000 10.000000 
R_rear_hand01 0.000000 0.000000 0.000000 0.000000 0.000000 0.000000 10.000000 
R_rear_hand02 0.000000 0.000000 0.000000 0.000000 0.000000 0.000000 10.000000 
R_rear_hand03 0.000000 0.000000 0.000000 0.000000 0.000000 0.000000 10.000000 
Rope4_Seg01 0.000000 0.000000 0.000000 0.000000 0.000000 0.000000 10.000000 
Rope4_Seg02 0.000000 0.000000 0.000000 0.000000 0.000000 0.000000 10.000000 
Rope4_Seg03 0.000000 0.000000 0.000000 0.000000 0.000000 0.000000 10.000000 
Rope4_Seg04 0.000000 0.000000 0.000000 0.000000 0.000000 0.000000 10.000000 
Rope4_Seg05 0.000000 0.000000 0.000000 0.000000 0.000000 0.000000 10.000000 
Rope4_Seg06 0.000000 0.000000 0.000000 0.000000 0.000000 0.000000 10.000000 
Rope4_Seg07 0.000000 0.000000 0.000000 0.000000 0.000000 0.000000 10.000000 
Rope4_Seg08 0.000000 0.000000 0.000000 0.000000 0.000000 0.000000 10.000000 
Rope4_Seg09 0.000000 0.000000 0.000000 0.000000 0.000000 0.000000 10.000000 
L_rear_hand01 0.000000 0.000000 0.000000 0.000000 0.000000 0.000000 10.000000 
L_rear_hand02 0.000000 0.000000 0.000000 0.000000 0.000000 0.000000 10.000000 
L_rear_hand03 0.000000 0.000000 0.000000 0.000000 0.000000 0.000000 10.000000 
#Beginning of Data. Separated by tabs
#Fr	Tx	Ty	Tz	Rx	Ry	Rz	SF
[MASTER]
36 -41.365875 3382.421631 -228.123032 0.001660 0.001660 0.001660 3390.358154
37 -33.092899 3505.340332 -194.585831 0.001660 0.001660 0.001660 3510.892822
[root]
36 -6.902632 227.015457 1399.519531 -91.656105 -21.125576 -89.700798 1417.828857
37 -9.744028 162.590027 1415.580444 -91.675255 -18.176203 -89.633064 1424.920532
[chest]
36 -84.512650 -34.090519 0.000000 3.178626 -7.533367 168.919006 91.129311
37 -84.512650 -34.090519 0.000000 2.108272 -6.021276 168.839203 91.129311
[L_mid_tent01]
36 27.299185 22.178974 -249.918701 -15.574679 25.091541 34.840923 252.381683
37 27.299187 22.178970 -249.918701 -17.057222 22.637209 30.208128 252.381683
[R_mid_tent01]
36 23.228794 24.509907 226.238495 -174.285049 -25.838636 40.101463 228.744751
37 23.228794 24.509907 226.238495 -172.240723 -24.461037 36.719429 228.744751
[spine01]
36 -0.361383 -0.195265 0.000000 -0.000001 -0.000007 22.052340 0.410763
37 -0.361383 -0.195265 0.000000 -0.000001 -0.000007 22.052340 0.410763
[Bip01_Neck]
36 165.484543 71.581718 0.000119 176.643677 -1.657967 43.431911 180.302734
37 165.484543 71.581718 0.000119 176.643677 -1.657967 43.431911 180.302734
[L_humerus]
36 -13.983130 -135.272980 -120.471481 19.215996 81.710396 109.655075 181.680161
37 -13.983130 -135.272980 -120.471481 9.736687 79.627716 100.115791 181.680161
[R_humerus]
36 -13.983309 -135.273102 125.287651 41.066139 -84.888329 54.143749 184.909012
37 -13.983309 -135.273102 125.287651 35.625023 -82.132164 59.684189 184.909012
[weapon_bone]
36 235.964890 -300.705902 0.000000 0.000000 -89.951546 -128.212341 382.234833
37 235.964890 -300.705902 0.000000 0.000000 -89.951546 -128.212341 382.234833
[Bip01_Head]
36 203.286133 162.408432 31.616449 22.409426 3.299058 -48.835217 262.109406
37 203.286133 162.408371 31.616453 18.920141 3.198468 -47.847485 262.109375
[eye_left_bone]
36 -24.626970 125.451866 -64.772606 0.000000 -90.000000 -99.840431 143.318359
37 -24.626970 125.451866 -64.772606 0.000000 -90.000000 -99.840431 143.318359
[eye_right_bone]
36 -24.626970 125.451866 64.327362 0.000000 -89.965736 80.156380 143.117676
37 -24.626970 125.451866 64.327362 0.000000 -89.965736 80.156380 143.117676
[L_forearm]
36 322.776093 0.000000 -0.000119 0.000776 0.002215 -51.382523 322.776093
37 322.776093 0.000000 -0.000119 0.000849 0.002188 -47.608284 322.776093
[L_front_hand]
36 241.149185 -0.042021 -3.300071 0.836590 -1.835725 -27.423449 241.171753
37 241.149185 -0.042021 -3.300071 0.836591 -1.835726 -27.423462 241.171753
[L_weapon_bone]
36 156.183838 0.000000 0.000000 0.000014 0.000007 0.000001 156.183838
37 156.183838 0.000000 0.000000 0.000014 0.000007 0.000001 156.183838
[L_front_hand01_01]
36 86.095154 20.947098 -0.655860 -0.366594 -0.477154 75.385574 88.609184
37 86.095154 20.947098 -0.655860 -0.366594 -0.477154 75.385574 88.609184
[L_front_hand02_01]
36 86.935165 -11.437475 24.513514 154.399796 -59.883835 -61.369587 91.046425
37 86.935165 -11.437475 24.513514 154.399796 -59.883835 -61.369587 91.046425
[L_front_hand03_01]
36 86.637497 -14.123976 -20.424902 -153.913849 58.118122 -62.702866 90.126129
37 86.637497 -14.123976 -20.424902 -153.913849 58.118122 -62.702866 90.126129
[L_front_hand01_02]
36 71.020905 -0.000179 0.000030 0.000334 -0.002323 -106.379684 71.020905
37 71.020905 -0.000179 0.000030 0.000334 -0.002323 -106.379684 71.020905
[L_front_hand02_02]
36 71.020927 -0.000119 0.000060 0.000334 -0.002323 -106.379684 71.020927
37 71.020927 -0.000119 0.000060 0.000334 -0.002323 -106.379684 71.020927
[L_front_hand03_02]
36 71.020905 -0.000060 0.000060 0.000334 -0.002323 -106.379684 71.020905
37 71.020905 -0.000060 0.000060 0.000334 -0.002323 -106.379684 71.020905
[R_forearm]
36 322.776428 -0.000060 0.000030 0.151946 -0.148060 -46.718288 322.776428
37 322.776428 -0.000060 0.000030 0.143726 -0.159819 -42.606369 322.776428
[R_front_hand]
36 238.847015 -0.006795 2.210259 42.936222 -10.646152 -26.312963 238.857239
37 238.847015 -0.006795 2.210259 42.936222 -10.646152 -26.312963 238.857239
[R_weapon_bone]
36 155.664093 0.002503 -0.000030 0.003487 0.001180 -90.988930 155.664078
37 155.664093 0.002503 -0.000030 0.003487 0.001180 -90.988930 155.664078
[R_front_hand01_01]
36 87.624611 14.231146 22.918642 -154.633499 -59.950619 61.746044 91.683487
37 87.624611 14.231146 22.918642 -154.633514 -59.950634 61.746063 91.683487
[R_front_hand02_01]
36 89.356956 14.367283 -19.491137 154.602661 58.302849 63.744389 92.579636
37 89.356956 14.367283 -19.491137 154.602661 58.302849 63.744389 92.579636
[R_front_hand03_01]
36 87.286232 -22.307278 -0.143439 0.162155 -0.423168 -75.767921 90.091743
37 87.286232 -22.307278 -0.143439 0.162155 -0.423168 -75.767921 90.091743
[R_front_hand01_02]
36 71.020905 0.000060 0.000119 0.002323 -0.000334 106.381721 71.020905
37 71.020905 0.000060 0.000119 0.002323 -0.000334 106.381721 71.020905
[R_front_hand02_02]
36 71.020844 -0.000030 -0.000119 0.002323 -0.000334 106.381721 71.020836
37 71.020844 -0.000030 -0.000119 0.002323 -0.000334 106.381721 71.020836
[R_front_hand03_02]
36 71.020905 0.000000 0.000030 0.002323 -0.000334 106.381721 71.020905
37 71.020905 0.000000 0.000030 0.002323 -0.000334 106.381721 71.020905
[null_rope01_connect]
36 328.732483 0.000000 -0.000238 -138.440948 -59.396610 -148.538651 328.732483
37 328.732483 0.000000 -0.000238 -142.169617 -60.585266 -143.078934 328.732483
[Rope1_Seg01]
36 0.000000 0.000000 0.000000 28.671652 50.959148 -141.158432 0.000000
37 0.000000 0.000000 0.000000 31.735085 37.321068 -136.332413 0.000000
[Rope1_Seg02]
36 139.999863 -0.000179 0.000000 -0.725455 -3.462376 -0.990762 139.999863
37 139.999863 -0.000179 0.000000 -1.157208 -1.946385 -1.378611 139.999863
[Rope1_Seg03]
36 139.999924 0.000060 -0.000060 -1.269784 -5.391182 -1.285362 139.999924
37 139.999924 0.000060 -0.000060 -2.686110 -4.516053 -3.294122 139.999924
[Rope1_Seg04]
36 139.999924 -0.000060 -0.000119 -2.215108 -7.780301 -1.741694 139.999924
37 139.999924 -0.000060 -0.000119 -1.067265 -1.638429 -1.353279 139.999924
[Rope1_Seg05]
36 139.999832 0.000119 -0.000060 2.206698 10.488449 -0.272672 139.999832
37 139.999832 0.000119 -0.000060 12.502549 16.556004 14.147367 139.999832
[Rope1_Seg06]
36 139.999954 0.000119 -0.000060 1.400604 17.962057 -0.558209 139.999954
37 139.999954 0.000119 -0.000060 9.489051 18.135534 10.447823 139.999954
[Rope1_Seg07]
36 139.999985 0.000060 0.000000 -0.858637 13.283785 -1.059381 139.999985
37 139.999985 0.000060 0.000000 3.192408 9.891688 3.864012 139.999985
[Rope1_Seg09]
36 121.602913 0.000119 -0.000089 -89.793175 -1.359789 0.847147 121.602913
37 121.602913 0.000119 -0.000089 -89.793175 -1.359789 0.847147 121.602913
[L_mid_hand01]
36 103.859421 1.038730 8.195221 130.544373 -67.584534 -38.866943 104.187431
37 103.859421 1.038730 8.195221 130.544373 -67.584534 -38.866943 104.187431
[L_mid_hand02]
36 105.572853 -4.139662 -10.864139 -168.923172 43.409309 -73.498894 106.211075
37 105.572853 -4.139662 -10.864139 -168.923172 43.409321 -73.498909 106.211075
[L_mid_hand03]
36 104.641464 17.579376 -3.913581 -6.012626 17.808172 74.893661 106.179977
37 104.641464 17.579376 -3.913581 -6.012627 17.808178 74.893677 106.179977
[null_rope02_connect]
36 328.732849 0.000179 -0.000119 -119.480347 64.620544 -8.916101 328.732849
37 328.732849 0.000179 -0.000119 -124.167526 65.462463 -13.678946 328.732849
[Rope2_Seg01]
36 0.000072 0.000019 0.000000 36.343769 48.190933 -30.718878 0.000074
37 0.000072 0.000015 0.000000 30.194426 37.693035 -37.302303 0.000074
[Rope2_Seg02]
36 139.999741 -0.000060 -0.000119 4.022690 9.543180 6.881212 139.999756
37 139.999741 -0.000060 -0.000119 -7.495373 -13.805833 -4.003351 139.999756
[Rope2_Seg03]
36 140.000107 0.000030 0.000000 36.627167 46.923214 -131.320267 140.000107
37 140.000107 0.000030 0.000000 -19.659771 -16.524876 -89.965263 140.000107
[Rope2_Seg04]
36 139.999802 0.000000 -0.000060 -1.667278 -14.383397 7.116177 139.999802
37 139.999802 0.000000 -0.000060 0.749146 5.715006 -10.095608 139.999802
[Rope2_Seg05]
36 139.999985 -0.000060 0.000119 0.404731 -1.077111 0.185924 139.999985
37 139.999985 -0.000060 0.000119 0.192865 0.621941 -1.223841 139.999985
[Rope2_Seg06]
36 139.999893 -0.000030 -0.000119 -0.048002 0.001654 0.001706 139.999893
37 139.999893 -0.000030 -0.000119 -0.047798 0.001660 0.001659 139.999893
[Rope2_Seg07]
36 139.999893 0.000060 -0.000060 -0.052773 0.001658 0.001667 139.999893
37 139.999893 0.000060 -0.000060 -0.052743 0.001660 0.001659 139.999893
[Rope2_Seg09]
36 121.338966 0.000089 -0.000060 33.793236 -1.359788 -0.847141 121.338966
37 121.338966 0.000089 -0.000060 33.793236 -1.359788 -0.847141 121.338966
[R_mid_hand01]
36 104.680779 11.144459 -10.335981 -16.212063 45.237247 70.462852 105.778534
37 104.680779 11.144459 -10.335981 -16.212063 45.237240 70.462845 105.778534
[R_mid_hand02]
36 104.070427 2.443552 8.231699 49.067368 -67.749771 39.286453 104.424065
37 104.070427 2.443552 8.231699 49.067368 -67.749771 39.286453 104.424065
[R_mid_hand03]
36 106.028137 -11.221827 -5.996406 -177.101105 15.551026 -76.585571 106.788818
37 106.028137 -11.221827 -5.996406 -177.101105 15.551026 -76.585571 106.788818
[spine02]
36 129.756927 0.001550 0.000119 0.376072 -4.043172 -13.159690 129.756927
37 129.756927 0.001550 0.000119 0.370442 -4.043746 -13.069825 129.756927
[spine03]
36 78.613914 0.081615 -4.899006 1.905061 3.828187 16.631649 78.766457
37 78.613907 0.081619 -4.899006 1.901699 3.829284 16.579878 78.766441
[pelvis]
36 169.435242 0.051022 0.000000 -0.060943 -0.180064 14.391958 169.435257
37 169.435242 0.051022 0.000000 -0.060794 -0.180115 14.297258 169.435257
[null_rope03_connect]
36 -1.257226 -2.466202 137.391083 0.000000 -89.572960 71.229347 137.418976
37 -1.257226 -2.466202 137.391083 0.000000 -89.530197 68.355896 137.418976
[null_rope04_connect]
36 -1.259640 -2.480268 -137.844437 0.000000 -89.572960 71.229347 137.872513
37 -1.259640 -2.480268 -137.844437 0.000000 -89.530197 68.355896 137.872513
[Rope3_Seg01]
36 -0.000036 -0.000272 0.000000 13.234713 15.727783 -92.899429 0.000274
37 -0.000036 -0.000278 0.000000 12.131507 19.943508 -94.144547 0.000281
[Rope3_Seg02]
36 139.999924 -0.000119 0.000060 0.652570 -2.243322 6.992862 139.999924
37 139.999924 -0.000119 0.000060 0.581948 -1.866488 6.029606 139.999924
[Rope3_Seg03]
36 139.999924 -0.000119 0.000119 0.107326 -2.174361 8.793402 139.999924
37 139.999924 -0.000119 0.000119 0.188875 -1.963810 7.576939 139.999924
[Rope3_Seg04]
36 139.999924 0.000119 0.000000 -0.924310 -1.780969 11.252574 139.999924
37 139.999924 0.000119 0.000000 -0.725603 -1.862402 10.782872 139.999924
[Rope3_Seg05]
36 139.999924 -0.000238 0.000060 -0.921021 -5.840466 2.163416 139.999924
37 139.999924 -0.000238 0.000060 -0.311814 -3.503584 0.703951 139.999924
[Rope3_Seg06]
36 139.999893 -0.000119 -0.000060 0.070260 -5.796772 -1.452836 139.999893
37 139.999893 -0.000119 -0.000060 0.488427 -3.203551 -3.951063 139.999893
[Rope3_Seg07]
36 139.999771 0.000060 -0.000119 0.310672 -3.947241 0.510589 139.999771
37 139.999771 0.000060 -0.000119 0.509800 -2.259587 -0.933407 139.999771
[Rope3_Seg08]
36 139.999985 -0.000060 0.000000 0.467952 -2.695532 0.366645 139.999985
37 139.999985 -0.000060 0.000000 0.559150 -1.553297 -0.624182 139.999985
[Rope3_Seg09]
36 90.185997 -0.000179 -0.000060 89.793228 -1.359877 -0.847183 90.185997
37 90.185997 -0.000179 -0.000060 89.793228 -1.359877 -0.847183 90.185997
[R_rear_hand01]
36 103.366196 -6.073594 -10.757982 -177.714203 24.565960 -73.910950 104.101845
37 103.366196 -6.073594 -10.757982 -177.714203 24.565960 -73.910950 104.101845
[R_rear_hand02]
36 100.509819 12.039542 -7.992327 -12.874829 36.868488 72.167213 101.543350
37 100.509819 12.039542 -7.992327 -12.874829 36.868488 72.167213 101.543350
[R_rear_hand03]
36 101.539970 5.215704 5.435467 71.484581 -71.816628 21.513813 101.819031
37 101.539970 5.215704 5.435467 71.484581 -71.816628 21.513813 101.819031
[Rope4_Seg01]
36 0.000010 0.000038 -0.000114 -66.565796 -29.043280 -156.875748 0.000121
37 0.000010 0.000038 -0.000114 -76.283279 -26.800329 -146.343506 0.000121
[Rope4_Seg02]
36 139.999985 0.000060 0.000119 9.977953 11.590795 -11.080729 139.999985
37 139.999985 0.000060 0.000119 11.302163 15.731013 -17.563465 139.999985
[Rope4_Seg03]
36 139.999924 0.000000 -0.000238 0.953708 -3.038711 -2.685589 139.999924
37 139.999924 0.000000 -0.000238 5.155660 -0.283814 -9.860157 139.999924
[Rope4_Seg04]
36 139.999985 0.000000 0.000119 18.834063 21.809965 -20.745049 139.999985
37 139.999985 0.000000 0.000119 14.072865 19.818661 -24.583155 139.999985
[Rope4_Seg05]
36 139.999802 -0.000060 -0.000119 26.302555 22.064127 -49.099884 139.999802
37 139.999802 -0.000060 -0.000119 17.691639 19.021591 -42.765537 139.999802
[Rope4_Seg06]
36 139.999924 0.000000 0.000060 4.480422 -1.991944 -12.505875 139.999924
37 139.999924 0.000000 0.000060 4.159299 0.013146 -12.195284 139.999924
[Rope4_Seg07]
36 139.999802 0.000000 0.000000 1.511326 -1.321971 -5.518329 139.999802
37 139.999802 0.000000 0.000000 1.607734 -0.427989 -5.729484 139.999802
[Rope4_Seg08]
36 139.999924 0.000000 0.000119 -0.885456 -0.747228 -2.797189 139.999924
37 139.999924 0.000000 0.000119 -0.801796 -0.306043 -2.964020 139.999924
[Rope4_Seg09]
36 90.185791 0.000060 0.000060 -135.617828 2.228885 0.850567 90.185791
37 90.185791 0.000060 0.000060 -135.617828 2.228885 0.850567 90.185791
[L_rear_hand01]
36 101.696655 -8.392275 -7.654577 -12.874829 -36.868488 107.832764 102.329041
37 101.696655 -8.392275 -7.654577 -12.874829 -36.868488 107.832764 102.329041
[L_rear_hand02]
36 102.726799 -1.568258 5.773216 71.484581 71.816628 158.486160 102.900848
37 102.726799 -1.568258 5.773216 71.484581 71.816628 158.486160 102.900848
[L_rear_hand03]
36 104.552910 9.721220 -10.420293 -177.714203 -24.565960 -106.089035 105.519653
37 104.552910 9.721220 -10.420293 -177.714203 -24.565960 -106.089035 105.519653
